<svg width="129" height="33" viewBox="0 0 129 33" fill="none" xmlns="http://www.w3.org/2000/svg">
<path fill-rule="evenodd" clip-rule="evenodd" d="M1.81656 12.9383C1.8165 13.7668 2.14596 14.5615 2.73244 15.1474C3.31892 15.7334 4.11439 16.0626 4.94385 16.0626C5.77331 16.0627 6.56882 15.7336 7.15537 15.1477C7.74193 14.5619 8.07148 13.7672 8.07153 12.9387C8.07159 12.1101 7.74213 11.3154 7.15565 10.7295C6.56917 10.1436 5.77371 9.81439 4.94424 9.81433C4.11478 9.81428 3.31927 10.1434 2.73272 10.7292C2.14616 11.3151 1.81661 12.1097 1.81656 12.9383ZM4.94373 17.8766C3.88532 17.8764 2.8549 17.5369 2.00409 16.908C1.15328 16.2791 0.526999 15.394 0.217387 14.383C-0.0922245 13.372 -0.0688178 12.2884 0.284164 11.2916C0.637145 10.2948 1.30106 9.43758 2.17824 8.84592C3.05541 8.25426 4.09953 7.95945 5.15697 8.00487C6.21441 8.05029 7.22934 8.43354 8.05243 9.09823C8.87553 9.76292 9.46333 10.674 9.72936 11.6973C9.99538 12.7206 9.92559 13.8023 9.53024 14.783L11.4753 16.0812C11.461 16.1266 11.4475 16.1723 11.4349 16.2182L11.1241 17.3268L10.4118 17.8024L8.40625 16.4639C7.51436 17.3366 6.29158 17.8767 4.94373 17.8766ZM1.81579 25.062C1.81584 24.2334 2.14539 23.4388 2.73195 22.8529C3.3185 22.2671 4.11401 21.938 4.94347 21.938C5.77294 21.9381 6.5684 22.2673 7.15488 22.8532C7.74137 23.4391 8.07082 24.2338 8.07076 25.0624C8.07071 25.8909 7.74116 26.6855 7.1546 27.2714C6.56805 27.8572 5.77254 28.1863 4.94308 28.1863C4.11362 28.1862 3.31815 27.857 2.73167 27.2711C2.14519 26.6852 1.81574 25.8905 1.81579 25.062ZM4.94359 20.124C3.8861 20.124 2.8565 20.4628 2.00601 21.0906C1.15552 21.7184 0.528973 22.6021 0.218393 23.6118C-0.0921863 24.6216 -0.0704276 25.7043 0.280474 26.7008C0.631375 27.6973 1.29292 28.5551 2.16795 29.1483C3.04298 29.7414 4.08536 30.0387 5.142 29.9963C6.19864 29.954 7.21384 29.5743 8.03848 28.913C8.86313 28.2517 9.45375 27.3437 9.72361 26.3223C9.99347 25.3009 9.92833 24.22 9.53777 23.2384L30.1659 9.50056L28.2471 9.6586C25.5411 9.94286 22.9206 10.7709 20.5432 12.0929L14.3385 15.5392C14.1054 15.6692 13.9006 15.8441 13.7357 16.0537C13.5708 16.2634 13.4492 16.5036 13.3779 16.7605L12.8673 18.5866L8.42207 21.5553C7.49772 20.6374 6.24695 20.1227 4.94359 20.124ZM14.3138 22.4727L14.338 22.4868L20.5423 25.9339C22.9195 27.2562 25.5399 28.0846 28.2459 28.3692L27.9688 27.0071L25.3467 25.362L17.6755 20.2256L14.3138 22.4727Z" fill="#8162FF"/>
<path d="M39.792 28.736C39.7493 28.736 39.6747 28.7467 39.568 28.768C39.4613 28.7893 39.3547 28.8 39.248 28.8C39.1413 28.8213 39.0453 28.832 38.96 28.832C38.896 28.8533 38.8747 28.864 38.896 28.864H37.328C36.9867 28.8213 36.6987 28.7893 36.464 28.768C36.2507 28.768 36.0587 28.7787 35.888 28.8C35.8453 28.8 35.8027 28.7787 35.76 28.736C35.7173 28.7147 35.6853 28.6933 35.664 28.672C35.6427 28.48 35.632 28.192 35.632 27.808C35.6533 27.424 35.664 27.1253 35.664 26.912V26.464C35.7067 26.1013 35.7173 25.7813 35.696 25.504C35.6747 25.2053 35.664 24.8747 35.664 24.512V23.808C35.7707 23.3387 35.792 22.848 35.728 22.336C35.6853 21.824 35.664 21.3547 35.664 20.928V12.768C35.664 12.5547 35.6107 12.448 35.504 12.448C35.2053 12.4267 34.9707 12.416 34.8 12.416C34.6293 12.416 34.3947 12.4267 34.096 12.448C33.968 12.448 33.744 12.416 33.424 12.352C33.1253 12.288 32.9227 12.2667 32.816 12.288C32.7093 12.3307 32.4853 12.3307 32.144 12.288C31.824 12.2453 31.6107 12.224 31.504 12.224C31.3973 12.224 31.3013 12.224 31.216 12.224C31.1307 12.2027 31.0453 12.16 30.96 12.096V10.112C31.0453 10.0693 31.1733 10.048 31.344 10.048C31.5147 10.048 31.6853 10.048 31.856 10.048C32.0693 10.048 32.2613 10.048 32.432 10.048C32.6027 10.048 32.7627 10.0373 32.912 10.016C32.9547 10.016 33.104 10.0267 33.36 10.048C33.616 10.0693 33.8293 10.0907 34 10.112C34.128 10.0693 34.256 10.048 34.384 10.048C34.704 10.0267 35.0027 10.0267 35.28 10.048C35.472 10.0693 35.6107 10.0693 35.696 10.048C35.7813 10.0267 35.9093 10.016 36.08 10.016H36.592L37.456 10.08C37.6693 10.08 37.8827 10.08 38.096 10.08C38.3093 10.0587 38.5227 10.0587 38.736 10.08C39.2267 10.1227 39.696 10.144 40.144 10.144C40.6133 10.1227 40.9973 10.0907 41.296 10.048C41.4453 10.048 41.712 10.0693 42.096 10.112C42.48 10.1547 42.8533 10.1867 43.216 10.208C43.4507 10.2293 43.6427 10.2293 43.792 10.208C43.9413 10.1867 44.0693 10.1867 44.176 10.208V11.68C44.176 11.7653 44.1867 11.8187 44.208 11.84C44.2293 11.8613 44.2187 11.9573 44.176 12.128C44.1547 12.2133 44.0693 12.2667 43.92 12.288C43.7707 12.288 43.6533 12.288 43.568 12.288C43.0133 12.3733 42.5013 12.4053 42.032 12.384C41.584 12.3627 41.1467 12.352 40.72 12.352C40.5493 12.352 40.4107 12.352 40.304 12.352C40.2187 12.352 40.112 12.3627 39.984 12.384V13.12C39.984 13.2907 39.9733 13.5467 39.952 13.888C39.952 14.2293 39.952 14.496 39.952 14.688C39.952 14.7733 39.952 14.8373 39.952 14.88C39.952 14.9227 39.9413 14.9867 39.92 15.072C39.92 15.136 39.9093 15.2427 39.888 15.392C39.8667 15.52 39.824 15.712 39.76 15.968C39.76 16.3307 39.76 16.64 39.76 16.896C39.76 17.152 39.76 17.3867 39.76 17.6C39.7813 17.8133 39.792 18.0267 39.792 18.24C39.792 18.432 39.792 18.6667 39.792 18.944V19.264C39.7067 19.6267 39.6853 19.9893 39.728 20.352C39.7707 20.7147 39.792 21.0773 39.792 21.44V28.736ZM46.3403 23.904C46.3403 23.7547 46.3403 23.5307 46.3403 23.232C46.3616 22.9333 46.3616 22.6453 46.3403 22.368C46.3616 22.176 46.3723 21.984 46.3723 21.792C46.3723 21.6 46.3723 21.3973 46.3723 21.184L46.2763 18.592V17.152C46.5109 17.152 46.7563 17.152 47.0123 17.152C47.2683 17.1307 47.5563 17.1413 47.8763 17.184C47.9616 17.2053 48.0469 17.216 48.1323 17.216H48.5803C48.7296 17.2587 48.8043 17.28 48.8043 17.28C48.8043 17.2587 48.8363 17.2693 48.9003 17.312C48.9003 17.4187 48.8896 17.504 48.8683 17.568C48.8469 17.6107 48.8363 17.6853 48.8363 17.792V18.816C48.9216 18.7093 48.9749 18.624 48.9963 18.56C49.0389 18.4747 49.1136 18.3787 49.2203 18.272L49.4123 18.208C49.6896 17.9307 50.0309 17.7493 50.4363 17.664C50.8416 17.5787 51.2469 17.5573 51.6523 17.6C51.7376 17.6 51.8763 17.6427 52.0683 17.728C52.2603 17.792 52.4523 17.8773 52.6443 17.984C52.7936 18.0053 52.9216 18.048 53.0283 18.112L53.1243 18.208C53.3376 18.4 53.5403 18.5707 53.7323 18.72C53.9243 18.848 54.0629 19.0187 54.1483 19.232C54.3616 19.5307 54.5323 19.8507 54.6603 20.192C54.7883 20.5333 54.9056 20.9067 55.0123 21.312C55.0123 21.4187 55.0016 21.5147 54.9803 21.6C54.9589 21.6853 54.8949 21.728 54.7883 21.728C54.4683 21.8347 54.1696 21.888 53.8923 21.888C53.6363 21.8667 53.2843 21.8773 52.8363 21.92H52.4843C52.4416 21.8987 52.4096 21.8667 52.3883 21.824C52.3883 21.7813 52.3883 21.7493 52.3883 21.728C52.3669 21.6 52.3349 21.4933 52.2923 21.408C52.2709 21.3013 52.2603 21.216 52.2603 21.152C52.2603 21.1093 52.2496 21.056 52.2283 20.992C52.2069 20.928 52.1856 20.8747 52.1643 20.832C52.1216 20.768 52.0896 20.7147 52.0683 20.672C51.6629 20.2667 51.2683 20.064 50.8843 20.064C50.8416 20.064 50.7776 20.064 50.6923 20.064C50.6283 20.064 50.5643 20.0853 50.5003 20.128C50.3936 20.1707 50.2336 20.2453 50.0203 20.352C49.8283 20.4373 49.7003 20.512 49.6363 20.576C49.5296 20.6827 49.4123 20.8 49.2843 20.928C49.1776 21.0347 49.0923 21.1627 49.0283 21.312C49.0069 21.3973 48.9856 21.5467 48.9643 21.76C48.9643 21.952 48.9643 22.0693 48.9643 22.112C48.9216 22.304 48.8789 22.56 48.8363 22.88C48.7936 23.2 48.7723 23.4773 48.7723 23.712C48.7723 23.8613 48.7509 24.0533 48.7083 24.288C48.6869 24.5227 48.6763 24.736 48.6763 24.928C48.6763 25.0773 48.6656 25.216 48.6443 25.344C48.6443 25.472 48.6443 25.6 48.6443 25.728V26.944C48.6443 27.072 48.6336 27.2107 48.6123 27.36C48.6123 27.5093 48.6123 27.6587 48.6123 27.808V28.512C47.5456 28.7467 46.8096 28.7467 46.4043 28.512C46.3616 28.3627 46.3296 28.1813 46.3083 27.968C46.2869 27.7333 46.2869 27.5947 46.3083 27.552C46.3509 27.168 46.3616 26.784 46.3403 26.4C46.3189 26.016 46.3083 25.6213 46.3083 25.216C46.2869 25.0027 46.2869 24.7787 46.3083 24.544C46.3296 24.3093 46.3403 24.096 46.3403 23.904ZM60.0403 25.216C60.0829 25.6427 60.0936 26.0267 60.0723 26.368C60.0509 26.7093 60.0189 27.0293 59.9763 27.328C59.9763 27.456 59.9443 27.552 59.8802 27.616C59.6669 27.6587 59.4216 27.7013 59.1443 27.744C58.8669 27.7653 58.6109 27.7653 58.3763 27.744C58.1843 27.7227 57.9923 27.7333 57.8003 27.776C57.6083 27.7973 57.4696 27.808 57.3843 27.808C57.3843 27.68 57.3736 27.5627 57.3523 27.456C57.3309 27.3493 57.3309 27.2 57.3523 27.008C57.3736 26.8373 57.3736 26.656 57.3523 26.464C57.3523 26.272 57.3523 26.0907 57.3523 25.92V24.352C57.3309 23.8613 57.3203 23.36 57.3203 22.848C57.3203 22.336 57.3096 21.9947 57.2883 21.824C57.2669 21.632 57.2669 21.44 57.2883 21.248C57.3309 21.056 57.3523 20.864 57.3523 20.672C57.3309 20.3733 57.3203 20.0747 57.3203 19.776C57.3416 19.456 57.3523 19.1467 57.3523 18.848C57.3523 18.592 57.3416 18.2613 57.3203 17.856C57.2989 17.4293 57.3096 17.088 57.3523 16.832C57.5229 16.7893 57.7363 16.768 57.9923 16.768C58.2483 16.768 58.5256 16.7573 58.8243 16.736C59.0589 16.7147 59.2936 16.704 59.5283 16.704C59.7629 16.704 59.9336 16.704 60.0403 16.704C60.0829 16.704 60.0936 16.768 60.0723 16.896C60.0723 17.0027 60.0723 17.0773 60.0723 17.12C60.0509 17.6533 60.0509 18.1227 60.0723 18.528C60.0936 18.912 60.0829 19.3173 60.0403 19.744C60.0616 20.1707 60.0616 20.544 60.0403 20.864C60.0403 21.1627 60.0189 21.5253 59.9763 21.952C59.9763 22.016 59.9763 22.1867 59.9763 22.464C59.9763 22.7413 59.9869 23.0613 60.0083 23.424C60.0296 23.7653 60.0403 24.1067 60.0403 24.448C60.0403 24.768 60.0403 25.024 60.0403 25.216ZM57.3203 14.656C57.2989 14.5493 57.2883 14.3893 57.2883 14.176C57.3096 13.9627 57.3203 13.7387 57.3203 13.504C57.3203 13.3973 57.3096 13.3013 57.2883 13.216C57.2883 13.1307 57.2883 13.0453 57.2883 12.96C57.2883 12.9173 57.2883 12.8853 57.2883 12.864C57.3096 12.8427 57.3203 12.8107 57.3203 12.768H59.6243C59.7309 12.768 59.7949 12.7787 59.8163 12.8C59.8376 12.8 59.8483 12.8533 59.8483 12.96V15.04C59.7203 15.0613 59.5176 15.072 59.2403 15.072C58.9843 15.072 58.7176 15.072 58.4403 15.072C58.1629 15.072 57.9069 15.072 57.6723 15.072C57.4589 15.0507 57.3523 15.0187 57.3523 14.976C57.3309 14.912 57.3203 14.8053 57.3203 14.656ZM80.1508 27.616C80.1934 27.1253 80.2041 26.688 80.1828 26.304C80.1614 25.8987 80.1508 25.5467 80.1508 25.248C80.0868 24.992 80.0441 24.736 80.0228 24.48C80.0014 24.2027 79.9694 23.9467 79.9268 23.712C79.8201 23.4133 79.7454 23.1147 79.7028 22.816C79.6814 22.496 79.6174 22.1867 79.5108 21.888C79.5108 21.568 79.4468 21.2693 79.3188 20.992C79.2121 20.6933 79.0094 20.4373 78.7108 20.224C78.4761 20.1173 78.2628 20.0213 78.0708 19.936C77.8788 19.8507 77.6761 19.808 77.4628 19.808C77.3561 19.872 77.1748 19.9787 76.9188 20.128C76.6841 20.2773 76.5134 20.4693 76.4068 20.704C76.3001 20.96 76.2041 21.1947 76.1188 21.408C76.0548 21.6 75.9801 21.76 75.8948 21.888C75.7668 22.1013 75.7028 22.3573 75.7028 22.656C75.7028 22.9547 75.6921 23.2213 75.6708 23.456C75.6708 23.4987 75.6601 23.6053 75.6388 23.776C75.6174 23.9253 75.5961 24.096 75.5748 24.288C75.5534 24.48 75.5321 24.6613 75.5108 24.832C75.4894 24.9813 75.4788 25.0773 75.4788 25.12L75.2228 26.976C75.2228 27.1253 75.2121 27.2747 75.1908 27.424C75.1908 27.552 75.1908 27.6907 75.1908 27.84C75.1908 27.9467 75.1801 28.0533 75.1588 28.16C75.1374 28.2667 75.1268 28.3733 75.1268 28.48H74.9348C74.6788 28.5227 74.4014 28.544 74.1028 28.544C73.8254 28.544 73.4948 28.5227 73.1108 28.48C73.0041 28.4587 72.9081 28.4373 72.8228 28.416C72.7588 28.3947 72.7268 28.2773 72.7268 28.064C72.7268 27.808 72.7161 27.5733 72.6948 27.36C72.6948 27.1467 72.6948 26.9227 72.6948 26.688C72.7161 26.368 72.7268 26.048 72.7268 25.728C72.7268 25.3867 72.6948 25.024 72.6308 24.64C72.6308 24.3627 72.5988 24.064 72.5348 23.744C72.4708 23.424 72.4174 23.1147 72.3748 22.816C72.3321 22.5387 72.3108 22.2613 72.3108 21.984C72.3108 21.6853 72.2574 21.4187 72.1508 21.184C72.0868 20.9707 72.0121 20.7787 71.9268 20.608C71.8628 20.416 71.7774 20.2133 71.6708 20C71.6494 19.9573 71.6281 19.936 71.6068 19.936C71.5854 19.9147 71.5641 19.8933 71.5428 19.872L71.3188 19.776C71.0841 19.6267 70.7961 19.52 70.4548 19.456H70.3268L69.6228 19.552C69.1961 19.616 68.8548 19.7653 68.5988 20C67.9801 20.6187 67.5748 21.44 67.3828 22.464C67.2548 22.656 67.1801 22.8587 67.1588 23.072C67.1374 23.264 67.1054 23.456 67.0628 23.648C67.0201 23.8827 66.9881 24.128 66.9668 24.384C66.9668 24.6187 66.9561 24.8533 66.9348 25.088C66.9348 25.2587 66.9028 25.4293 66.8388 25.6C66.7961 25.7707 66.7961 25.9307 66.8388 26.08C66.8388 26.1227 66.8281 26.2187 66.8068 26.368C66.8068 26.5173 66.7961 26.6773 66.7748 26.848C66.7748 27.0187 66.7641 27.1787 66.7428 27.328C66.7428 27.4773 66.7428 27.5733 66.7428 27.616C66.7001 27.7013 66.6788 27.872 66.6788 28.128C66.6788 28.384 66.6681 28.5333 66.6468 28.576C66.5401 28.576 66.4121 28.5867 66.2628 28.608C66.1348 28.6507 65.9961 28.6933 65.8468 28.736C65.7188 28.7787 65.5694 28.7893 65.3988 28.768C65.2281 28.7467 65.0681 28.7147 64.9188 28.672C64.5988 28.608 64.3641 28.576 64.2148 28.576C64.0654 28.576 63.8734 28.544 63.6388 28.48C63.6388 28.352 63.6281 28.192 63.6068 28C63.6068 27.7867 63.5854 27.5733 63.5428 27.36C63.5214 27.1253 63.5001 26.9013 63.4788 26.688C63.4788 26.4747 63.4788 26.3147 63.4788 26.208C63.4788 26.144 63.4681 26.0373 63.4468 25.888C63.4468 25.7173 63.4361 25.5467 63.4148 25.376C63.4148 25.184 63.4041 25.0133 63.3828 24.864C63.3614 24.6933 63.3508 24.576 63.3508 24.512C63.3294 24.2987 63.3188 24.1067 63.3188 23.936C63.3188 23.7653 63.3188 23.5733 63.3188 23.36C63.3401 23.1467 63.3508 22.944 63.3508 22.752C63.3508 22.56 63.3508 22.368 63.3508 22.176V19.52C63.3508 19.456 63.3508 19.296 63.3508 19.04C63.3721 18.7627 63.3828 18.4747 63.3828 18.176C63.4041 17.8773 63.4148 17.6 63.4148 17.344C63.4361 17.0667 63.4468 16.896 63.4468 16.832C63.5534 16.832 63.6921 16.8213 63.8628 16.8C64.0334 16.7787 64.1721 16.768 64.2788 16.768C64.4921 16.768 64.6841 16.768 64.8548 16.768C65.0468 16.7467 65.2388 16.736 65.4308 16.736C65.6441 16.736 65.7508 16.736 65.7508 16.736C65.7508 16.7147 65.7934 16.7147 65.8788 16.736C65.9428 16.928 65.9641 17.056 65.9427 17.12C65.9427 17.1627 65.9641 17.2587 66.0068 17.408C66.0281 17.5147 66.0494 17.6427 66.0708 17.792C66.1134 17.9413 66.1348 18.0693 66.1348 18.176V18.336C66.3268 18.144 66.5188 17.9947 66.7108 17.888C66.9028 17.76 67.0521 17.6427 67.1588 17.536C67.4574 17.3013 67.7668 17.1413 68.0868 17.056C68.4068 16.9707 68.7694 16.896 69.1748 16.832L70.6148 16.672H70.8388C71.1588 16.736 71.4468 16.8107 71.7028 16.896C71.9588 16.96 72.2254 17.0773 72.5028 17.248L73.3028 17.952C73.4308 18.0373 73.5161 18.112 73.5588 18.176C73.6654 18.2613 73.7614 18.368 73.8468 18.496C73.9534 18.6027 74.0494 18.7627 74.1348 18.976C74.2414 18.8693 74.3374 18.7733 74.4228 18.688C74.5081 18.5813 74.6041 18.4747 74.7108 18.368C74.7534 18.3253 74.8068 18.2827 74.8708 18.24C74.9561 18.1973 75.0521 18.1547 75.1588 18.112C75.3294 18.0053 75.4574 17.92 75.5428 17.856C75.6281 17.7707 75.7561 17.6853 75.9268 17.6C76.0334 17.5573 76.1508 17.5147 76.2788 17.472C76.4281 17.4293 76.5561 17.376 76.6628 17.312C77.1748 17.0987 77.6334 17.056 78.0388 17.184C78.4654 17.312 78.8814 17.4293 79.2868 17.536C79.6068 17.6427 79.8734 17.8027 80.0868 18.016C80.3214 18.2293 80.5454 18.4853 80.7588 18.784L81.3668 20C81.4734 20.32 81.5694 20.64 81.6548 20.96C81.7614 21.2587 81.8148 21.568 81.8148 21.888C81.9001 22.2933 81.9854 22.7093 82.0708 23.136C82.1561 23.5413 82.1988 24 82.1988 24.512C82.3054 24.832 82.3374 25.184 82.2948 25.568C82.2521 25.952 82.2841 26.2933 82.3908 26.592V28.256C82.1774 28.256 82.0068 28.288 81.8788 28.352C81.7721 28.4373 81.6014 28.48 81.3668 28.48C81.2601 28.48 81.1214 28.4907 80.9508 28.512C80.7801 28.5547 80.6414 28.5973 80.5347 28.64C80.4281 28.64 80.3321 28.6293 80.2468 28.608C80.1828 28.608 80.1508 28.5653 80.1508 28.48V27.616Z" fill="#8162FF"/>
<path d="M89.44 19.84C89.44 19.8613 89.5147 19.872 89.664 19.872C89.8133 19.8507 89.984 19.84 90.176 19.84H93.76C93.9307 19.84 94.08 19.808 94.208 19.744C94.3573 19.68 94.5173 19.648 94.688 19.648V19.456C94.7307 19.264 94.7627 18.976 94.784 18.592C94.8053 18.208 94.816 17.92 94.816 17.728C94.816 17.5573 94.8053 17.3867 94.784 17.216C94.7627 17.024 94.752 16.8427 94.752 16.672C94.7733 16.5013 94.7733 16.3413 94.752 16.192C94.7307 16.0213 94.72 15.8507 94.72 15.68V14.208C94.72 14.144 94.72 14.0053 94.72 13.792C94.7413 13.5573 94.7413 13.3227 94.72 13.088C94.72 12.7467 94.7307 12.4693 94.752 12.256C94.7733 12.0213 94.7627 11.712 94.72 11.328C94.7413 11.2427 94.7413 11.168 94.72 11.104C94.6987 11.0187 94.688 10.9227 94.688 10.816C94.688 10.7733 94.6773 10.7413 94.656 10.72C94.656 10.6773 94.656 10.6347 94.656 10.592C94.656 10.5067 94.656 10.4213 94.656 10.336C94.656 10.2507 94.6667 10.1547 94.688 10.048H98.112C98.2187 10.1547 98.272 10.2507 98.272 10.336C98.2933 10.4 98.304 10.4853 98.304 10.592C98.304 10.8907 98.2933 11.1787 98.272 11.456C98.272 11.712 98.272 11.9573 98.272 12.192C98.272 12.576 98.24 12.992 98.176 13.44C98.1333 13.8667 98.112 14.3147 98.112 14.784C98.112 14.9547 98.1227 15.168 98.144 15.424C98.1653 15.68 98.1547 15.9147 98.112 16.128C98.048 16.6613 98.0053 17.1733 97.984 17.664C97.984 18.1547 97.984 18.6453 97.984 19.136C97.984 19.5627 98.0053 20 98.048 20.448C98.0907 20.8747 98.112 21.2693 98.112 21.632C98.0693 21.7813 98.048 22.048 98.048 22.432C98.048 22.7947 98.048 23.1893 98.048 23.616C98.0693 24.0427 98.08 24.448 98.08 24.832C98.1013 25.216 98.112 25.4827 98.112 25.632V28.896C97.6427 28.896 97.216 28.9173 96.832 28.96C96.4693 29.024 96.096 29.056 95.712 29.056C95.5413 29.056 95.392 29.056 95.264 29.056C95.1573 29.0773 95.0187 29.1413 94.848 29.248L94.688 29.056C94.7093 28.9067 94.72 28.704 94.72 28.448C94.72 28.192 94.7093 27.9253 94.688 27.648C94.688 27.3493 94.688 27.072 94.688 26.816C94.688 26.56 94.688 26.3573 94.688 26.208C94.7093 25.7173 94.72 25.2267 94.72 24.736C94.7413 24.224 94.752 23.7227 94.752 23.232C94.752 23.2533 94.7413 23.2 94.72 23.072C94.72 22.944 94.72 22.8053 94.72 22.656C94.72 22.4853 94.7093 22.3253 94.688 22.176C94.688 22.0267 94.688 21.9307 94.688 21.888C94.688 21.8027 94.656 21.7707 94.592 21.792C94.5493 21.8133 94.4853 21.8133 94.4 21.792C94.1653 21.7493 93.9733 21.7493 93.824 21.792C93.6747 21.8133 93.4933 21.824 93.28 21.824C93.152 21.824 92.992 21.8347 92.8 21.856C92.608 21.856 92.4053 21.8667 92.192 21.888C92 21.888 91.808 21.8987 91.616 21.92C91.424 21.9413 91.264 21.952 91.136 21.952L89.728 21.984C89.6213 21.984 89.5253 21.984 89.44 21.984C89.376 21.9627 89.3013 21.9627 89.216 21.984C89.152 21.984 89.12 22.0267 89.12 22.112C89.12 22.1547 89.1307 22.1867 89.152 22.208C89.152 22.464 89.1627 22.7307 89.184 23.008C89.2053 23.264 89.216 23.5413 89.216 23.84V24.704C89.216 25.2587 89.2053 25.8027 89.184 26.336C89.184 26.8693 89.1413 27.4133 89.056 27.968V28.896C88.9493 28.9813 88.8427 29.024 88.736 29.024C88.6507 29.0453 88.5227 29.056 88.352 29.056C88.1813 29.056 87.968 29.056 87.712 29.056C87.456 29.0773 87.2427 29.1413 87.072 29.248H86.144C86.0373 29.248 85.9413 29.2267 85.856 29.184C85.7707 29.1627 85.632 29.12 85.44 29.056V26.88C85.44 26.3467 85.4293 26.0053 85.408 25.856C85.408 25.7067 85.408 25.5893 85.408 25.504C85.3653 25.3973 85.3547 25.2693 85.376 25.12C85.3973 24.9707 85.408 24.864 85.408 24.8C85.4507 24.352 85.4507 23.8933 85.408 23.424C85.3867 22.9333 85.3653 22.528 85.344 22.208C85.3227 22.016 85.312 21.8347 85.312 21.664C85.312 21.472 85.312 21.28 85.312 21.088C85.312 20.7253 85.3227 20.3733 85.344 20.032C85.3867 19.6693 85.3867 19.3067 85.344 18.944C85.3013 18.4747 85.312 18.0907 85.376 17.792C85.3973 17.7067 85.3867 17.5573 85.344 17.344C85.3013 17.1093 85.28 16.864 85.28 16.608C85.28 16.2667 85.2907 15.9573 85.312 15.68C85.3333 15.4027 85.344 15.136 85.344 14.88C85.3653 14.624 85.376 14.3573 85.376 14.08C85.3973 13.8027 85.3973 13.4933 85.376 13.152C85.376 13.0667 85.376 12.928 85.376 12.736C85.376 12.5227 85.376 12.2987 85.376 12.064C85.3973 11.8293 85.408 11.616 85.408 11.424C85.4293 11.2107 85.44 11.0613 85.44 10.976C85.44 10.784 85.4187 10.6453 85.376 10.56C85.3333 10.4533 85.312 10.3573 85.312 10.272V10.048H89.216C89.3013 10.1333 89.3653 10.2187 89.408 10.304C89.4293 10.3467 89.44 10.3787 89.44 10.4C89.4613 10.8267 89.4613 11.2427 89.44 11.648C89.4187 12.0533 89.3973 12.4693 89.376 12.896C89.376 13.472 89.3867 14.0373 89.408 14.592C89.4507 15.1467 89.4827 15.7013 89.504 16.256C89.504 16.5547 89.4933 16.864 89.472 17.184C89.472 17.504 89.472 17.8133 89.472 18.112C89.472 18.4107 89.4613 18.7413 89.44 19.104C89.4187 19.4667 89.4187 19.712 89.44 19.84ZM104.138 28.384C103.796 28.256 103.434 28.064 103.05 27.808C102.666 27.5307 102.388 27.328 102.218 27.2C102.111 27.0933 102.015 27.008 101.93 26.944C101.866 26.88 101.823 26.7947 101.802 26.688C101.652 26.368 101.482 26.0907 101.29 25.856C101.119 25.6213 101.002 25.3547 100.938 25.056C100.874 24.7573 100.81 24.4587 100.746 24.16C100.703 23.84 100.66 23.5413 100.618 23.264C100.618 22.9653 100.607 22.688 100.586 22.432C100.564 22.176 100.554 21.8987 100.554 21.6C100.554 21.28 100.564 20.992 100.586 20.736C100.628 20.48 100.65 20.192 100.65 19.872C100.65 19.6587 100.639 19.4453 100.618 19.232C100.618 18.9973 100.618 18.7733 100.618 18.56V18.112C100.618 17.92 100.628 17.728 100.65 17.536C100.692 17.3227 100.714 17.1093 100.714 16.896C100.97 16.8747 101.279 16.8747 101.642 16.896C102.026 16.896 102.314 16.896 102.506 16.896C102.57 16.9173 102.708 16.9173 102.922 16.896C103.156 16.8747 103.316 16.864 103.402 16.864C103.508 16.864 103.732 16.864 104.074 16.864C104.436 16.864 104.671 16.8747 104.778 16.896C104.756 17.0027 104.735 17.0987 104.714 17.184C104.692 17.2693 104.682 17.3547 104.682 17.44C104.682 17.5253 104.682 17.5893 104.682 17.632C104.682 17.9307 104.671 18.1973 104.65 18.432C104.628 18.6667 104.618 18.912 104.618 19.168C104.618 19.296 104.618 19.552 104.618 19.936C104.639 20.2987 104.66 20.6933 104.682 21.12C104.703 21.5467 104.724 21.952 104.746 22.336C104.788 22.6987 104.82 22.944 104.842 23.072C104.842 23.2853 104.842 23.4667 104.842 23.616C104.863 23.744 104.884 23.9147 104.906 24.128C104.927 24.3627 104.98 24.5653 105.066 24.736C105.172 24.8853 105.247 24.9813 105.29 25.024L105.482 25.536L105.93 26.112C106.079 26.304 106.282 26.4213 106.538 26.464C106.794 26.4853 107.039 26.4853 107.274 26.464L108.01 26.4C108.18 26.3787 108.372 26.272 108.586 26.08C108.799 25.8667 108.991 25.7067 109.162 25.6C109.268 25.4933 109.354 25.344 109.418 25.152C109.503 24.9387 109.578 24.7253 109.642 24.512C109.642 24.4907 109.663 24.3947 109.706 24.224C109.748 24.0533 109.791 23.872 109.834 23.68C109.898 23.4667 109.94 23.2747 109.962 23.104C110.004 22.912 110.026 22.8053 110.026 22.784C110.047 22.6133 110.068 22.4213 110.09 22.208C110.111 21.9947 110.111 21.8027 110.09 21.632C110.047 21.44 110.047 21.2267 110.09 20.992C110.132 20.7573 110.154 20.5333 110.154 20.32C110.154 20.1493 110.164 19.9573 110.186 19.744C110.207 19.5307 110.228 19.3707 110.25 19.264C110.25 19.2853 110.25 19.2427 110.25 19.136C110.271 19.0293 110.282 18.912 110.282 18.784C110.282 18.656 110.282 18.5387 110.282 18.432C110.282 18.304 110.282 18.2293 110.282 18.208C110.26 18.08 110.228 17.9627 110.186 17.856C110.164 17.728 110.154 17.6 110.154 17.472C110.154 17.408 110.164 17.344 110.186 17.28C110.207 17.216 110.218 17.152 110.218 17.088H110.89C110.975 17.088 111.05 17.0987 111.114 17.12C111.199 17.1413 111.263 17.152 111.306 17.152C111.519 17.152 111.7 17.1627 111.85 17.184C111.999 17.184 112.127 17.1733 112.234 17.152C112.34 17.1093 112.426 17.0987 112.49 17.12C112.554 17.12 112.639 17.1093 112.746 17.088C112.916 17.1307 113.055 17.1413 113.162 17.12C113.29 17.0773 113.45 17.0667 113.642 17.088C113.663 17.1947 113.652 17.344 113.61 17.536C113.588 17.728 113.578 17.92 113.578 18.112C113.578 18.5173 113.578 18.9333 113.578 19.36C113.599 19.7653 113.599 20.1813 113.578 20.608C113.556 20.8427 113.546 21.0667 113.546 21.28C113.567 21.4933 113.556 21.7067 113.514 21.92C113.514 21.9627 113.514 22.048 113.514 22.176C113.514 22.2827 113.514 22.4 113.514 22.528C113.514 22.656 113.514 22.784 113.514 22.912C113.514 23.0187 113.514 23.0827 113.514 23.104C113.556 23.3387 113.578 23.6267 113.578 23.968C113.578 24.3093 113.567 24.672 113.546 25.056C113.524 25.4187 113.503 25.7707 113.482 26.112C113.482 26.4533 113.482 26.7413 113.482 26.976C113.482 27.296 113.492 27.616 113.514 27.936C113.535 28.2347 113.546 28.544 113.546 28.864C113.034 28.9707 112.532 29.0133 112.042 28.992C111.572 28.992 111.082 29.0133 110.57 29.056C110.506 28.9707 110.474 28.832 110.474 28.64C110.474 28.5333 110.463 28.4373 110.442 28.352C110.442 28.2667 110.431 28.1707 110.41 28.064C110.388 28 110.378 27.8933 110.378 27.744C110.378 27.68 110.367 27.6267 110.346 27.584C110.303 27.584 110.239 27.6373 110.154 27.744C110.068 27.8507 109.972 27.9253 109.866 27.968C109.652 28.0747 109.439 28.1707 109.226 28.256C109.034 28.3627 108.831 28.4373 108.618 28.48C108.191 28.672 107.722 28.7787 107.21 28.8C106.698 28.8427 106.164 28.864 105.61 28.864C105.29 28.864 105.012 28.8107 104.778 28.704C104.564 28.5973 104.351 28.4907 104.138 28.384ZM121.985 25.344C122.092 25.4507 122.273 25.536 122.529 25.6C122.785 25.664 123.02 25.6427 123.233 25.536C123.489 25.28 123.692 24.9387 123.841 24.512C123.884 24.2987 123.894 24.096 123.873 23.904C123.873 23.6907 123.862 23.488 123.841 23.296C123.905 22.912 123.873 22.624 123.745 22.432C123.617 22.2187 123.446 21.952 123.233 21.632C123.02 21.5253 122.849 21.472 122.721 21.472C122.593 21.472 122.422 21.5253 122.209 21.632C122.166 21.6747 122.06 21.792 121.889 21.984C121.74 22.1547 121.601 22.3573 121.473 22.592C121.409 22.7413 121.377 22.9013 121.377 23.072C121.377 23.2427 121.377 23.3813 121.377 23.488C121.377 23.5307 121.356 23.6373 121.313 23.808C121.292 23.9787 121.324 24.1707 121.409 24.384C121.473 24.576 121.569 24.7787 121.697 24.992C121.846 25.184 121.942 25.3013 121.985 25.344ZM117.537 29.216C117.366 29.216 117.185 29.2267 116.993 29.248C116.822 29.2693 116.641 29.2693 116.449 29.248V26.976C116.449 26.656 116.417 26.4107 116.353 26.24C116.289 26.048 116.268 25.8027 116.289 25.504C116.332 25.12 116.342 24.7253 116.321 24.32C116.321 23.9147 116.31 23.5093 116.289 23.104L116.225 22.08C116.225 21.7173 116.214 21.344 116.193 20.96C116.172 20.576 116.161 20.192 116.161 19.808C116.161 19.616 116.161 19.424 116.161 19.232C116.182 19.0187 116.172 18.816 116.129 18.624C116.129 18.4107 116.14 18.1973 116.161 17.984C116.182 17.7707 116.161 17.568 116.097 17.376C116.097 17.2907 116.097 17.1413 116.097 16.928C116.097 16.7147 116.097 16.48 116.097 16.224C116.118 15.9467 116.129 15.6693 116.129 15.392C116.15 15.1147 116.172 14.8693 116.193 14.656L116.225 11.328C116.31 10.7093 116.353 10.048 116.353 9.344C116.374 8.64 116.385 7.92533 116.385 7.2C116.62 7.136 116.897 7.104 117.217 7.104C117.558 7.104 117.889 7.136 118.209 7.2C118.294 7.22133 118.369 7.232 118.433 7.232C118.518 7.21067 118.604 7.21067 118.689 7.232C118.71 7.232 118.742 7.24267 118.785 7.264C118.87 7.30667 118.913 7.37067 118.913 7.456C118.956 7.88267 118.956 8.30933 118.913 8.736C118.892 9.14133 118.902 9.55733 118.945 9.984C118.966 10.3467 118.966 10.688 118.945 11.008C118.945 11.328 118.945 11.68 118.945 12.064C118.924 12.4267 118.924 12.7147 118.945 12.928C118.966 13.1413 118.966 13.4293 118.945 13.792L118.913 14.56V15.808C118.913 15.9787 118.913 16.288 118.913 16.736C118.934 17.1627 118.945 17.5893 118.945 18.016C118.945 18.464 118.945 18.8587 118.945 19.2C118.945 19.5413 118.934 19.7973 118.913 19.968C119.02 19.8613 119.084 19.776 119.105 19.712C119.148 19.6267 119.212 19.584 119.297 19.584C119.51 19.3707 119.724 19.136 119.937 18.88C120.172 18.624 120.438 18.4427 120.737 18.336C120.972 18.2293 121.153 18.176 121.281 18.176C121.409 18.1547 121.569 18.144 121.761 18.144C122.188 18.0373 122.636 17.984 123.105 17.984C123.596 17.984 124.044 18.0373 124.449 18.144C125.857 18.6987 126.753 19.584 127.137 20.8C127.244 21.0133 127.34 21.2267 127.425 21.44C127.51 21.632 127.553 21.8347 127.553 22.048C127.66 22.4533 127.724 22.8267 127.745 23.168C127.766 23.5093 127.777 23.8933 127.777 24.32C127.777 24.5547 127.766 24.8 127.745 25.056C127.724 25.2907 127.681 25.5147 127.617 25.728C127.574 25.8773 127.51 26.0587 127.425 26.272C127.34 26.4853 127.276 26.656 127.233 26.784C127.062 27.232 126.87 27.6053 126.657 27.904C126.444 28.1813 126.124 28.4907 125.697 28.832C125.59 28.9387 125.484 29.0347 125.377 29.12C125.292 29.2053 125.196 29.248 125.089 29.248C124.876 29.4613 124.63 29.6213 124.353 29.728C124.097 29.8347 123.862 29.888 123.649 29.888H122.817C122.476 29.824 122.156 29.7493 121.857 29.664C121.558 29.5787 121.26 29.4293 120.961 29.216C120.918 29.1947 120.812 29.1307 120.641 29.024C120.492 28.9387 120.332 28.832 120.161 28.704C119.99 28.576 119.82 28.4267 119.649 28.256C119.478 28.1067 119.361 27.9573 119.297 27.808C119.297 27.7653 119.265 27.7333 119.201 27.712C119.158 27.6693 119.116 27.6267 119.073 27.584C119.052 27.7973 119.03 28.0533 119.009 28.352C119.009 28.6507 119.009 28.9493 119.009 29.248L117.537 29.216Z" fill="white"/>
</svg>
