<svg width="130" height="22" viewBox="0 0 130 22" fill="none" xmlns="http://www.w3.org/2000/svg">
<path d="M25.3398 19.772L25.3391 2.22433L30.1401 1.49957L32.9201 1.49975L32.9199 4.5648L28.4827 4.56452L28.4824 9.50727L32.9198 7.27089L32.9196 10.6949L28.4821 12.9589L28.4821 20.3959L25.3398 19.772Z" fill="white"/>
<path d="M34.4911 4.12309C34.4912 2.43869 35.4284 1.49991 37.0269 1.50001L40.5271 1.50023C42.1256 1.50033 43.0902 2.43924 43.0901 4.12364L43.09 4.59306L39.9205 6.24965L39.9206 4.53763L37.633 4.53749L37.6327 9.36979L43.0899 6.55359L43.0892 18.0407C43.0891 19.7251 42.1244 20.6638 40.5259 20.6637L37.0257 20.6635C35.4272 20.6634 34.4902 19.7245 34.4903 18.0401L34.4904 16.2453L37.6324 14.6163L37.6322 17.6261L39.9197 17.6263L39.9201 11.6066L34.4905 14.4504L34.4911 4.12309Z" fill="white"/>
<path d="M53.9093 1.50108L53.9083 17.5995L56.1958 17.5997L56.1968 1.50123L59.3663 1.50143L59.3653 17.9865C59.3651 19.8089 58.4832 20.6649 56.609 20.6648L54.1561 20.6646C53.0261 20.6645 52.3647 20.0018 52.3648 18.8144C52.3647 20.0018 51.6757 20.6644 50.5457 20.6644L47.8999 20.6642C46.3013 20.6641 45.3643 19.7252 45.3644 18.0408L45.3655 1.50054L48.5074 1.50074L48.5064 17.5992L50.8215 17.5993L50.8225 1.50088L53.9093 1.50108Z" fill="white"/>
<path d="M72.6794 8.32271L72.6796 4.45688L70.1441 4.45671L70.1437 9.56514L72.6794 8.32271ZM75.7109 10.4767L75.7105 18.0151C75.7103 19.81 74.8008 20.6659 72.8991 20.6658L67.1114 20.6654L67.1126 1.50192L73.1484 1.5023C74.7469 1.5024 75.7114 2.44131 75.7113 4.12571L75.7111 8.15723C75.711 9.39982 75.3251 10.1453 74.3605 10.4766L75.7109 10.4767ZM72.6788 17.6836L72.6792 11.5258L70.1435 12.7959L70.1432 17.6834L72.6788 17.6836Z" fill="white"/>
<path d="M86.5838 20.6667L83.4419 20.6665L83.4424 12.5482L81.1273 13.7354L81.1268 20.6663L77.9849 20.6661L77.986 4.12585C77.9861 2.44145 78.9232 1.50267 80.5217 1.50277L84.0219 1.50299C85.6204 1.50309 86.585 2.442 86.5849 4.1264L86.5838 20.6667ZM83.4426 9.1794L83.4429 4.5404L81.1278 4.54025L81.1275 10.3114L83.4426 9.1794Z" fill="white"/>
<path d="M94.37 9.23532L94.3703 4.54109L92.0552 4.54094L92.0548 10.3949L94.37 9.23532ZM97.5118 11.0028L95.1966 12.19L98.779 20.6674L95.4993 20.6672L92.5232 13.5705L92.0546 13.819L92.0542 20.667L88.9123 20.6668L88.9135 1.5033L94.9493 1.50369C96.5478 1.50379 97.5124 2.44269 97.5122 4.12709L97.5118 11.0028Z" fill="white"/>
<path d="M105.327 8.32478L105.327 4.45895L102.792 4.45879L102.791 9.56721L105.327 8.32478ZM108.358 10.4788L108.358 18.0172C108.358 19.812 107.448 20.668 105.547 20.6679L99.7589 20.6675L99.7601 1.50399L105.796 1.50437C107.394 1.50448 108.359 2.44338 108.359 4.12778L108.359 8.1593C108.359 9.40189 107.973 10.1474 107.008 10.4787L108.358 10.4788ZM105.326 17.6856L105.327 11.5279L102.791 12.7979L102.791 17.6855L105.326 17.6856Z" fill="white"/>
<path d="M118.212 20.6687L110.632 20.6682L110.634 1.50468L118.213 1.50516L118.213 4.57022L113.775 4.56994L113.775 9.51268L118.212 7.2763L118.212 10.7003L113.775 12.9643L113.775 17.6033L118.212 17.6036L118.212 20.6687Z" fill="white"/>
<path d="M125.591 9.2373L125.591 4.54307L123.276 4.54292L123.276 10.3969L125.591 9.2373ZM128.733 11.0047L126.418 12.192L130 20.6694L126.72 20.6692L123.744 13.5724L123.276 13.8209L123.275 20.669L120.133 20.6688L120.135 1.50528L126.17 1.50567C127.769 1.50577 128.733 2.44468 128.733 4.12907L128.733 11.0047Z" fill="white"/>
<path d="M25.3398 19.772L25.3391 2.22433L30.1401 1.49957L32.9201 1.49975L32.9199 4.5648L28.4827 4.56452L28.4824 9.50727L32.9198 7.27089L32.9196 10.6949L28.4821 12.9589L28.4821 20.3959L25.3398 19.772Z" fill="#8162FF"/>
<path d="M34.4911 4.12309C34.4912 2.43869 35.4284 1.49991 37.0269 1.50001L40.5271 1.50023C42.1256 1.50033 43.0902 2.43924 43.0901 4.12364L43.09 4.59306L39.9205 6.24965L39.9206 4.53763L37.633 4.53749L37.6327 9.36979L43.0899 6.55359L43.0892 18.0407C43.0891 19.7251 42.1244 20.6638 40.5259 20.6637L37.0257 20.6635C35.4272 20.6634 34.4902 19.7245 34.4903 18.0401L34.4904 16.2453L37.6324 14.6163L37.6322 17.6261L39.9197 17.6263L39.9201 11.6066L34.4905 14.4504L34.4911 4.12309Z" fill="#8162FF"/>
<path d="M53.9093 1.50108L53.9083 17.5995L56.1958 17.5997L56.1968 1.50123L59.3663 1.50143L59.3653 17.9865C59.3651 19.8089 58.4832 20.6649 56.609 20.6648L54.1561 20.6646C53.0261 20.6645 52.3647 20.0018 52.3648 18.8144C52.3647 20.0018 51.6757 20.6644 50.5457 20.6644L47.8999 20.6642C46.3013 20.6641 45.3643 19.7252 45.3644 18.0408L45.3655 1.50054L48.5074 1.50074L48.5064 17.5992L50.8215 17.5993L50.8225 1.50088L53.9093 1.50108Z" fill="#8162FF"/>
<path fill-rule="evenodd" clip-rule="evenodd" d="M1.8165 4.93412C1.81644 5.7627 2.1459 6.55736 2.73238 7.14328C3.31886 7.72921 4.11432 8.05841 4.94379 8.05846C5.77325 8.05852 6.56876 7.72942 7.15531 7.14356C7.74187 6.55771 8.07142 5.76309 8.07147 4.93452C8.07153 4.10595 7.74207 3.31129 7.15559 2.72536C6.56911 2.13943 5.77364 1.81023 4.94418 1.81018C4.11472 1.81013 3.31921 2.13923 2.73266 2.72508C2.1461 3.31093 1.81655 4.10555 1.8165 4.93412ZM4.94367 9.87248C3.88525 9.87229 2.85484 9.53277 2.00403 8.90387C1.15322 8.27496 0.526938 7.38988 0.217326 6.37885C-0.0922855 5.36781 -0.0688788 4.2842 0.284103 3.28745C0.637084 2.29069 1.301 1.43343 2.17818 0.841767C3.05535 0.250109 4.09947 -0.0446962 5.15691 0.000724021C6.21435 0.0461443 7.22928 0.429392 8.05237 1.09408C8.87547 1.75877 9.46327 2.66981 9.7293 3.69315C9.99532 4.71649 9.92553 5.79811 9.53018 6.77886L11.4752 8.07702C11.4609 8.12246 11.4475 8.16815 11.4348 8.21407L11.124 9.32262L10.4117 9.79825L8.40619 8.45978C7.5143 9.33247 6.29152 9.87256 4.94367 9.87248ZM1.81573 17.0578C1.81578 16.2292 2.14533 15.4346 2.73189 14.8488C3.31844 14.2629 4.11395 13.9338 4.94341 13.9339C5.77287 13.9339 6.56834 14.2631 7.15482 14.849C7.7413 15.435 8.07076 16.2296 8.0707 17.0582C8.07065 17.8868 7.7411 18.6814 7.15454 19.2672C6.56799 19.8531 5.77248 20.1822 4.94302 20.1821C4.11356 20.1821 3.31809 19.8529 2.73161 19.267C2.14513 18.681 1.81567 17.8864 1.81573 17.0578ZM4.94353 12.1198C3.88604 12.1199 2.85644 12.4587 2.00595 13.0865C1.15546 13.7142 0.528912 14.5979 0.218332 15.6077C-0.0922474 16.6175 -0.0704886 17.7001 0.280412 18.6966C0.631314 19.6931 1.29286 20.551 2.16789 21.1441C3.04292 21.7373 4.0853 22.0345 5.14194 21.9922C6.19858 21.9498 7.21378 21.5701 8.03842 20.9089C8.86307 20.2476 9.45369 19.3395 9.72355 18.3182C9.99341 17.2968 9.92827 16.2159 9.53771 15.2342L30.1659 1.49641L28.247 1.65445C25.541 1.93871 22.9205 2.76675 20.5431 4.08877L14.3384 7.53501C14.1054 7.66502 13.9005 7.83991 13.7356 8.04957C13.5708 8.25922 13.4492 8.49946 13.3779 8.75639L12.8673 10.5825L8.42201 13.5511C7.49765 12.6332 6.24689 12.1186 4.94353 12.1198ZM14.3137 14.4686L14.338 14.4827L20.5423 17.9297C22.9195 19.252 25.5399 20.0804 28.2458 20.365L27.9687 19.003L25.3466 17.3579L17.6754 12.2214L14.3137 14.4686Z" fill="#8162FF"/>
</svg>
